D:\school\WTK\thesis\model\3dpredictsim\Results\batch_windlass\Pog_s1_tmt_bCst_d05_k500_WL10_ig24_act_TTC_GRF.mot
nRows=10
nColumns=19

name D:\school\WTK\thesis\model\3dpredictsim\Results\batch_windlass\Pog_s1_tmt_bCst_d05_k500_WL10_ig24_act_TTC_GRF.mot
datacolumns 19
datarows 10
range 0.0000000000 0.1000260471
endheader
time 	ground_force_vx	ground_force_vy	ground_force_vz	ground_force_px	ground_force_py	ground_force_pz	1_ground_force_vx	1_ground_force_vy	1_ground_force_vz	1_ground_force_px	1_ground_force_py	1_ground_force_pz	ground_torque_x	ground_torque_y	ground_torque_z	1_ground_torque_x	1_ground_torque_y	1_ground_torque_z
        0.0000000000	      -43.2457743110	       31.9620703905	        5.0637517682	        0.1976547979	        0.0000000000	        0.0719139968	      103.1024611373	      430.5526265443	        4.1049952705	       -0.3558854997	        0.0000000000	       -0.0393950575	        0.0000000000	        0.0000000000	        0.0000000000	        0.0000000000	        0.0000000000	        0.0000000000	
        0.0111140052	     -103.8868424267	       89.1383089328	       13.1805984696	        0.2112771206	        0.0000000000	        0.0697602970	       75.8178091553	      330.4927584756	       -1.6582954607	       -0.3481242432	        0.0000000000	       -0.0359864649	        0.0000000000	        0.0000000000	        0.0000000000	        0.0000000000	        0.0000000000	        0.0000000000	
        0.0222280105	     -190.9692678075	      269.2688553128	       15.2613292615	        0.2268056329	        0.0000000000	        0.0656399469	       46.2523318278	      228.0336518824	      -14.7585831132	       -0.3358896702	        0.0000000000	       -0.0304411459	        0.0000000000	        0.0000000000	        0.0000000000	        0.0000000000	        0.0000000000	        0.0000000000	
        0.0333420157	     -120.3988833825	      559.2066152204	       -2.4088008665	        0.2185123567	        0.0000000000	        0.0647914056	       27.9295543522	      185.6735932232	      -25.6446608444	       -0.3317103731	        0.0000000000	       -0.0285268574	        0.0000000000	        0.0000000000	        0.0000000000	        0.0000000000	        0.0000000000	        0.0000000000	
        0.0444560209	     -135.0892840178	      791.0812315397	      -12.1933837503	        0.2151056652	        0.0000000000	        0.0635691375	       23.2661589712	      152.2194944821	      -25.1953745275	       -0.3315407086	        0.0000000000	       -0.0284682701	        0.0000000000	        0.0000000000	        0.0000000000	        0.0000000000	        0.0000000000	        0.0000000000	
        0.0555700262	     -136.0390684647	      857.4914965032	      -16.9093847274	        0.2128791182	        0.0000000000	        0.0629848594	       15.0731692020	      108.4971471810	      -22.3035684642	       -0.3314104773	        0.0000000000	       -0.0283965967	        0.0000000000	        0.0000000000	        0.0000000000	        0.0000000000	        0.0000000000	        0.0000000000	
        0.0666840314	     -129.5936611311	      845.4152910965	      -19.7138118934	        0.2126771087	        0.0000000000	        0.0625440938	       -0.7548495690	       58.7587535662	      -15.6254444345	       -0.3322484911	        0.0000000000	       -0.0282716562	        0.0000000000	        0.0000000000	        0.0000000000	        0.0000000000	        0.0000000000	        0.0000000000	
        0.0777980367	     -118.3953863063	      819.8726348206	      -21.2952951209	        0.2136162488	        0.0000000000	        0.0622197825	       -6.2029933390	        9.0847773180	       -2.0783576260	        0.0000000000	        0.0000000000	        0.0000000000	        0.0000000000	        0.0000000000	        0.0000000000	        0.0000000000	        0.0000000000	        0.0000000000	
        0.0889120419	     -105.1122201109	      791.1120701219	      -22.2733400128	        0.2149084639	        0.0000000000	        0.0619999631	       -0.9301685712	        0.7767216961	        0.0597167573	        0.0000000000	        0.0000000000	        0.0000000000	        0.0000000000	        0.0000000000	        0.0000000000	        0.0000000000	        0.0000000000	        0.0000000000	
        0.1000260471	      -92.9936139275	      764.2421774684	      -21.1174562503	        0.2163681571	        0.0000000000	        0.0618906966	       -5.8033421009	        4.1488380132	        0.4839688869	        0.0000000000	        0.0000000000	        0.0000000000	        0.0000000000	        0.0000000000	        0.0000000000	        0.0000000000	        0.0000000000	        0.0000000000	
